<?xml version="1.0" encoding="UTF-8"?>
<svg version="1.1" xmlns="http://www.w3.org/2000/svg" width="1536" height="1024">
<path d="M0 0 C506.88 0 1013.76 0 1536 0 C1536 337.92 1536 675.84 1536 1024 C1029.12 1024 522.24 1024 0 1024 C0 686.08 0 348.16 0 0 Z " fill="#0F1626" transform="translate(0,0)"/>
<path d="M0 0 C1.51099777 -0.0098568 1.51099777 -0.0098568 3.05252075 -0.01991272 C6.37591638 -0.03957283 9.69926698 -0.05129205 13.02270508 -0.0612793 C14.73148551 -0.06739259 14.73148551 -0.06739259 16.47478676 -0.07362938 C22.50451092 -0.09445899 28.53421253 -0.1087742 34.56396484 -0.11816406 C40.77322651 -0.12922232 46.98212923 -0.16362493 53.19126415 -0.20333576 C57.98271832 -0.22954898 62.77408752 -0.2378601 67.56560707 -0.24144554 C69.8536045 -0.24629921 72.14159845 -0.25787813 74.42952538 -0.27648354 C77.64080221 -0.30097487 80.85115731 -0.29989146 84.0625 -0.29296875 C84.99535324 -0.30577881 85.92820648 -0.31858887 86.889328 -0.33178711 C94.76382502 -0.27034557 102.39331927 1.42140457 108.65161133 6.40356445 C109.29614258 7.19504883 109.94067383 7.9865332 110.60473633 8.80200195 C111.67594727 10.11104492 111.67594727 10.11104492 112.76879883 11.4465332 C113.4571582 12.34758789 114.14551758 13.24864258 114.85473633 14.17700195 C115.5637207 15.06774414 116.27270508 15.95848633 117.00317383 16.8762207 C121.89075588 23.338261 121.89075588 23.338261 121.74536133 26.72387695 C120.72534063 29.53340764 119.55681475 30.9738395 117.47973633 33.11450195 C113.94762888 36.91104525 110.709338 40.8285653 107.54223633 44.92700195 C103.26803941 50.44143889 98.8524918 55.8074324 94.29492188 61.09008789 C91.81203034 63.95174233 91.81203034 63.95174233 89.85473633 67.17700195 C86.86567228 65.86401872 85.08903037 64.58633533 83.08520508 62.0168457 C82.59221924 61.39205322 82.0992334 60.76726074 81.59130859 60.12353516 C80.82451782 59.12906372 80.82451782 59.12906372 80.04223633 58.11450195 C79.51106201 57.4392749 78.9798877 56.76404785 78.43261719 56.06835938 C76.15965853 53.17301411 73.91592381 50.25762805 71.69067383 47.32543945 C67.44315596 41.73069125 63.70392768 37.44735773 56.85473633 35.17700195 C53.60403986 34.8623276 53.60403986 34.8623276 50.04833984 34.88647461 C49.3842511 34.87975739 48.72016235 34.87304016 48.03594971 34.86611938 C45.85177018 34.84720041 43.66789882 34.8432186 41.48364258 34.84106445 C39.95816422 34.83463315 38.4326871 34.82790454 36.9072113 34.82089233 C33.71382793 34.8089355 30.52055261 34.80520995 27.32714844 34.80639648 C23.24378313 34.80659979 19.1611129 34.77927944 15.07791233 34.74485207 C11.92853131 34.72257083 8.7793174 34.71855928 5.62986565 34.71961594 C4.12482237 34.71726252 2.61977431 34.70845353 1.11480904 34.6929512 C-0.99377506 34.67326121 -3.1008623 34.6791386 -5.20947266 34.69116211 C-6.40684555 34.68831207 -7.60421844 34.68546204 -8.83787537 34.68252563 C-14.00812376 35.4555118 -17.07574749 37.99490512 -20.52026367 41.80200195 C-22.72265696 46.37620341 -22.94869683 50.18597781 -22.14526367 55.17700195 C-19.94581695 59.6573564 -17.64394549 62.04012809 -13.14526367 64.17700195 C-10.42870059 64.96329275 -7.84052428 65.36007399 -5.02416992 65.5715332 C-3.77204712 65.67087158 -3.77204712 65.67087158 -2.49462891 65.7722168 C-1.11513062 65.87977295 -1.11513062 65.87977295 0.29223633 65.98950195 C10.3628243 66.83487662 20.42388464 67.77059579 30.47683716 68.80404663 C32.08255733 68.96719488 33.68873954 69.12586833 35.29537964 69.2796936 C47.97382444 70.49900094 60.34113245 72.31604377 71.72973633 78.42700195 C73.21086914 79.20817383 73.21086914 79.20817383 74.72192383 80.00512695 C75.42575195 80.3918457 76.12958008 80.77856445 76.85473633 81.17700195 C75.4598237 84.18785358 73.81672241 86.68402017 71.77270508 89.29418945 C71.17006836 90.06633789 70.56743164 90.83848633 69.9465332 91.6340332 C69.31811523 92.43196289 68.68969727 93.22989258 68.04223633 94.05200195 C67.42541992 94.84219727 66.80860352 95.63239258 66.1730957 96.4465332 C62.80308245 100.75126852 59.38094145 104.99928846 55.85473633 109.17700195 C52.43545385 108.5949406 49.63903644 107.66764251 46.49145508 106.2434082 C37.03388415 102.73620586 26.63737433 102.79861369 16.66723633 102.11450195 C-34.72898185 98.46940854 -34.72898185 98.46940854 -50.08276367 82.42700195 C-59.83950166 70.79668747 -62.25243797 57.07716341 -61.38793945 42.34350586 C-60.42614562 33.75702848 -55.35049758 25.87500867 -50.14526367 19.17700195 C-49.67991211 18.5737207 -49.21456055 17.97043945 -48.73510742 17.34887695 C-40.68707667 8.20993666 -27.85755305 3.23986515 -16.14526367 1.17700195 C-15.30916061 1.00590408 -14.47305756 0.83480621 -13.61161804 0.65852356 C-9.05984208 0.02622281 -4.59026445 0.0130892 0 0 Z " fill="#3CCEB2" transform="translate(380.145263671875,398.822998046875)"/>
<path d="M0 0 C1.47913124 0.01061211 1.47913124 0.01061211 2.98814392 0.0214386 C6.10618256 0.04919966 9.22235732 0.11190327 12.33984375 0.17578125 C14.46677075 0.20088777 16.59372619 0.22369679 18.72070312 0.24414062 C23.90695698 0.29896633 29.0918355 0.38511075 34.27734375 0.48828125 C34.27734375 1.14828125 34.27734375 1.80828125 34.27734375 2.48828125 C33.61734375 2.48828125 32.95734375 2.48828125 32.27734375 2.48828125 C32.00656006 3.07367676 31.73577637 3.65907227 31.45678711 4.26220703 C30.28562613 6.47264913 29.01263516 8.19397016 27.40625 10.10546875 C26.83745117 10.78778564 26.26865234 11.47010254 25.68261719 12.1730957 C25.07450195 12.89585693 24.46638672 13.61861816 23.83984375 14.36328125 C19.32329222 19.78395499 14.85833821 25.23056023 10.52734375 30.80078125 C6.34262233 36.17243076 2.04192116 41.42430676 -2.3359375 46.640625 C-8.95989808 54.54384474 -15.42517191 62.57966294 -21.92504883 70.58496094 C-25.72268128 75.26118738 -29.53309323 79.92670435 -33.3515625 84.5859375 C-35.17626185 86.8194657 -36.99623511 89.05650204 -38.8125 91.296875 C-44.62496389 98.46655092 -50.46563484 105.60711002 -56.38671875 112.6875 C-61.52991963 118.85418065 -66.60618236 125.07321253 -71.59765625 131.36328125 C-72.97221391 133.07197052 -74.34724913 134.78027568 -75.72265625 136.48828125 C-76.12709961 137.00181152 -76.53154297 137.5153418 -76.94824219 138.04443359 C-92.0128219 157.11603281 -111.26672724 168.35209092 -135.42457581 171.28233147 C-139.7018954 171.66565706 -143.97819166 171.61799498 -148.26953125 171.60180664 C-149.29482437 171.60195267 -150.32011749 171.60209869 -151.3764801 171.60224915 C-154.7418942 171.60155636 -158.10725191 171.59379378 -161.47265625 171.5859375 C-163.815348 171.58407107 -166.15804014 171.58264823 -168.50073242 171.58164978 C-174.64916065 171.57784235 -180.79756504 171.56802727 -186.94598389 171.5569458 C-193.22700681 171.54669347 -199.50803361 171.54214398 -205.7890625 171.53710938 C-218.10027086 171.52640336 -230.41146157 171.50934832 -242.72265625 171.48828125 C-240.69403233 166.30657855 -238.0379751 161.82654669 -235.09765625 157.11328125 C-234.60136719 156.28828125 -234.10507812 155.46328125 -233.59375 154.61328125 C-228.77872583 146.89454022 -223.69121004 140.98539125 -214.72265625 138.48828125 C-212.24355987 138.31581798 -209.75632597 138.24541371 -207.27124023 138.2487793 C-206.54997452 138.24676514 -205.8287088 138.24475098 -205.08558655 138.24267578 C-203.52730631 138.23914539 -201.9690117 138.23987863 -200.41073418 138.24445152 C-197.93235383 138.2500827 -195.45443502 138.240822 -192.97608948 138.22724915 C-185.93219993 138.19029592 -178.88846639 138.17151235 -171.84448242 138.18286133 C-167.52548214 138.18876294 -163.2071299 138.17020668 -158.8882618 138.13697243 C-157.25507483 138.12909446 -155.62181577 138.13019049 -153.98864555 138.14099693 C-141.49194873 138.22008068 -129.74822551 136.70336933 -119.671875 128.46484375 C-116.17416791 124.91807063 -113.25603093 120.92670365 -110.30078125 116.9296875 C-107.84601348 113.61537851 -105.25302983 110.45709186 -102.59765625 107.30078125 C-98.99595161 103.01782395 -95.46407998 98.6916955 -91.98046875 94.3125 C-84.76004565 85.28072508 -77.42568153 76.3390327 -70.09765625 67.39453125 C-66.56547168 63.07225276 -63.04859263 58.73757354 -59.53051758 54.40380859 C-56.33289197 50.46603098 -53.12683015 46.53551229 -49.91015625 42.61328125 C-47.17668811 39.27845012 -44.46966259 35.92513085 -41.78515625 32.55078125 C-37.98756238 27.78680167 -34.09069843 23.11113434 -30.1640625 18.453125 C-28.60791919 16.56334456 -27.08988701 14.6410539 -25.625 12.6796875 C-24.97660156 11.81214844 -24.32820312 10.94460938 -23.66015625 10.05078125 C-23.11230469 9.28894531 -22.56445312 8.52710938 -22 7.7421875 C-15.49351807 1.30266765 -8.91690016 -0.24535778 0 0 Z " fill="#49BFBF" transform="translate(552.72265625,398.51171875)"/>
<path d="M0 0 C2.18415822 1.55759162 4.04543731 3.14830903 6 5 C6.33 2.36 6.66 -0.28 7 -3 C14.59 -3 22.18 -3 30 -3 C30.04528081 7.66641627 30.08193343 18.33276815 30.10362434 28.999259 C30.11403768 33.95274886 30.12815196 38.90616925 30.15087891 43.85961914 C30.17269486 48.64475241 30.18458704 53.42981906 30.18975449 58.21499825 C30.19343457 60.03573212 30.20062068 61.85646257 30.21146011 63.67716789 C30.22609153 66.23790082 30.22797311 68.7983625 30.22705078 71.35913086 C30.23424133 72.10288467 30.24143188 72.84663849 30.24884033 73.6129303 C30.20942292 83.80298182 27.72508929 91.24434693 21 99 C9.86505713 109.37927809 -2.81127875 111.67635868 -17.54296875 111.3125 C-28.9132547 110.73373677 -37.67279679 105.89960748 -45.25 97.625 C-49.1368667 92.83544568 -52 88.24387738 -52 82 C-48.22956968 81.85503492 -44.45985258 81.76604393 -40.6875 81.6875 C-39.61564453 81.64560547 -38.54378906 81.60371094 -37.43945312 81.56054688 C-36.41142578 81.54443359 -35.38339844 81.52832031 -34.32421875 81.51171875 C-33.37635498 81.48553467 -32.42849121 81.45935059 -31.4519043 81.43237305 C-29 82 -29 82 -27.31176758 84.38598633 C-26.66244263 85.6799231 -26.66244263 85.6799231 -26 87 C-21.93028403 91.06971597 -18.72219058 91.30484648 -13 91.4375 C-7.82830939 91.43182929 -4.451888 90.66984613 0 88 C4.69328714 83.04597469 6.18153051 78.41345389 6.625 71.6875 C6.69976563 70.61886719 6.77453125 69.55023437 6.8515625 68.44921875 C6.90054688 67.64097656 6.94953125 66.83273437 7 66 C6.49210938 66.39832031 5.98421875 66.79664063 5.4609375 67.20703125 C-4.50264144 74.87562853 -12.47841011 76.78807209 -25 76 C-35.91049436 74.19686508 -43.54022646 67.71165389 -50 59 C-56.67807016 48.30676617 -57.88214906 34.94020805 -55.3125 22.734375 C-51.77715388 12.18725908 -44.69330887 3.80205598 -34.8125 -1.3125 C-24.58193395 -6.25067547 -9.74357113 -5.87618066 0 0 Z " fill="#EDEDEE" transform="translate(837,466)"/>
<path d="M0 0 C4.02077152 -0.05843491 8.04143259 -0.0937424 12.0625 -0.125 C13.7630957 -0.15013672 13.7630957 -0.15013672 15.49804688 -0.17578125 C29.53736751 -0.25764318 29.53736751 -0.25764318 33.7421875 3.59716797 C38.09566272 8.39003935 41.82770861 13.71993304 45.5625 19 C46.64640156 20.52135644 47.7310327 22.04219336 48.81640625 23.5625 C49.3386377 24.2946875 49.86086914 25.026875 50.39892578 25.78125 C52.88356122 29.22442885 55.43588929 32.61576577 58 36 C62.46520967 31.85017689 65.86983263 27.22168302 69.375 22.25 C70.52629616 20.63857394 71.67862926 19.0278882 72.83203125 17.41796875 C73.37939941 16.65274902 73.92676758 15.8875293 74.49072266 15.09912109 C76.31539565 12.56134393 78.16807857 10.04867129 80.0625 7.5625 C80.79146484 6.60537109 80.79146484 6.60537109 81.53515625 5.62890625 C84.7281397 2.07830865 87.30576103 0.72020516 92 0 C94.05733273 -0.07905625 96.11695513 -0.10779825 98.17578125 -0.09765625 C99.33271484 -0.09443359 100.48964844 -0.09121094 101.68164062 -0.08789062 C102.87982422 -0.07951172 104.07800781 -0.07113281 105.3125 -0.0625 C107.1387793 -0.05573242 107.1387793 -0.05573242 109.00195312 -0.04882812 C112.00135226 -0.03706578 115.00065089 -0.02062826 118 0 C116.66558629 2.82749964 115.16230649 5.29610568 113.3046875 7.80859375 C112.76158936 8.5452124 112.21849121 9.28183105 111.65893555 10.04077148 C111.07023682 10.83169189 110.48153809 11.6226123 109.875 12.4375 C109.26116455 13.26644775 108.6473291 14.09539551 108.01489258 14.94946289 C103.28702293 21.31534398 98.49690473 27.63308803 93.6875 33.9375 C93.01372314 34.82099121 92.33994629 35.70448242 91.64575195 36.61474609 C88.78107379 40.36773212 85.91183919 44.11680122 83.0234375 47.8515625 C82.20300343 48.92178181 81.38267906 49.99208524 80.5625 51.0625 C79.54349609 52.37927734 79.54349609 52.37927734 78.50390625 53.72265625 C76.50820993 56.63260191 76.50820993 56.63260191 76 60 C77.69285005 62.5694859 77.69285005 62.5694859 80.1875 65.1875 C84.38880975 69.9576438 88.14348957 74.89197685 91.75 80.125 C97.15625213 87.92862274 102.89997419 95.42280405 108.7734375 102.87890625 C109.85029474 104.2515568 110.92581166 105.62525987 112 107 C112.5765332 107.73718262 113.15306641 108.47436523 113.74707031 109.23388672 C114.57223145 110.30727295 114.57223145 110.30727295 115.4140625 111.40234375 C115.91115723 112.04550537 116.40825195 112.68866699 116.92041016 113.35131836 C118 115 118 115 118 117 C113.87449131 117.17445227 109.75044004 117.30070887 105.62207031 117.38452148 C104.22129884 117.41949242 102.82077858 117.46709032 101.42089844 117.52807617 C88.31180294 118.08441796 88.31180294 118.08441796 83.40625 113.98828125 C81.61132812 112.05688477 81.61132812 112.05688477 80 110 C79.47341797 109.34249756 78.94683594 108.68499512 78.40429688 108.00756836 C76.86041383 105.96507813 75.42265681 103.87841662 74 101.75 C72.97460244 100.25606811 71.94855894 98.76257938 70.921875 97.26953125 C70.42880859 96.54588379 69.93574219 95.82223633 69.42773438 95.07666016 C67.42058379 92.1572308 65.3417359 89.29694748 63.25 86.4375 C62.61578125 85.56996094 61.9815625 84.70242188 61.328125 83.80859375 C60.88984375 83.21175781 60.4515625 82.61492187 60 82 C56.95021081 83.32465181 55.25262803 84.59071319 53.30078125 87.2734375 C52.81810791 87.92795898 52.33543457 88.58248047 51.83813477 89.25683594 C51.08294556 90.30532715 51.08294556 90.30532715 50.3125 91.375 C49.5234729 92.44669434 49.5234729 92.44669434 48.71850586 93.54003906 C47.13789992 95.68780219 45.56738543 97.84257566 44 100 C42.36092784 102.25520246 40.71481446 104.50440484 39.0625 106.75 C38.39347656 107.67296875 37.72445313 108.5959375 37.03515625 109.546875 C34.10556972 113.07812326 31.3759116 115.5413628 27 117 C24.86205475 117.0833804 22.72157991 117.10733747 20.58203125 117.09765625 C18.70161133 117.09282227 18.70161133 117.09282227 16.78320312 117.08789062 C15.47287109 117.07951172 14.16253906 117.07113281 12.8125 117.0625 C11.47721519 117.05748317 10.14192859 117.05292059 8.80664062 117.04882812 C5.53771527 117.03702695 2.26888009 117.02056297 -1 117 C0.27760242 113.48284475 1.75661568 110.70890138 4.01953125 107.734375 C4.6230542 106.93547852 5.22657715 106.13658203 5.84838867 105.31347656 C6.49654541 104.4675293 7.14470215 103.62158203 7.8125 102.75 C8.48321533 101.86538086 9.15393066 100.98076172 9.8449707 100.06933594 C11.890491 97.37480042 13.94399448 94.68654061 16 92 C17.15364858 90.48958543 18.30729459 88.9791689 19.4609375 87.46875 C21.06102623 85.37557173 22.66207073 83.28315168 24.265625 81.19262695 C29.90325035 73.839698 35.45519618 66.42304368 41 59 C39.29225141 55.20397189 36.92528476 51.9222259 34.5 48.5625 C34.05567627 47.94342773 33.61135254 47.32435547 33.15356445 46.68652344 C29.85227979 42.11399086 26.43722672 37.63850455 22.97167969 33.18896484 C18.7245031 27.70591598 14.68050178 22.07965273 10.64135742 16.44238281 C10.12549072 15.72276367 9.60962402 15.00314453 9.078125 14.26171875 C8.57474609 13.55837402 8.07136719 12.8550293 7.55273438 12.13037109 C5.45732526 9.25544343 3.28223501 6.44368633 1.09277344 3.63989258 C0 2 0 2 0 0 Z " fill="#4ECDB3" transform="translate(1094,428)"/>
<path d="M0 0 C9.36609686 7.77085945 11.76056815 13.68312483 14 26 C5.75 26 -2.5 26 -11 26 C-11.99 23.69 -12.98 21.38 -14 19 C-20.39136212 12.77683162 -26.81341075 12.58055686 -35.24584961 12.55517578 C-41.51000947 12.68673016 -45.22646585 13.73428863 -50 18 C-51.74008654 21.48017308 -51.58464868 25.20306815 -51 29 C-46.93706047 34.45594737 -42.04445028 35.94410493 -35.5703125 37.11328125 C-34.53455078 37.30656006 -33.49878906 37.49983887 -32.43164062 37.69897461 C-31.34044922 37.90143799 -30.24925781 38.10390137 -29.125 38.3125 C3.19996734 44.58627928 3.19996734 44.58627928 12.80859375 57.97265625 C17.42496997 65.82806366 16.8764611 75.08072784 15.375 83.875 C14.07751413 88.76552366 11.3683435 92.3018886 8 96 C7.51917969 96.53496094 7.03835938 97.06992187 6.54296875 97.62109375 C-3.33793116 107.2518443 -16.97187844 109.19858862 -30.0625 109.25 C-31.34833984 109.270625 -32.63417969 109.29125 -33.95898438 109.3125 C-47.5976769 109.36819655 -58.47082432 106.13755391 -68.75 96.875 C-75.58802635 89.55085803 -77.90907445 81.81832999 -79 72 C-71.08 72 -63.16 72 -55 72 C-53.68 74.64 -52.36 77.28 -51 80 C-47.19846021 84.59020423 -42.89983362 87.03281416 -37 88 C-28.74945072 88.53080457 -20.21806337 88.69238087 -13.0625 84.125 C-9.91751521 80.88471264 -9.13642859 79.0719389 -8.5625 74.5625 C-8.71090721 70.90992378 -8.71090721 70.90992378 -11.0625 68.25 C-16.33076571 64.21473265 -21.74492644 62.65824476 -28.19140625 61.421875 C-29.56329619 61.14525013 -30.93503633 60.86788151 -32.30664062 60.58984375 C-34.42176885 60.16929762 -36.53751617 59.7547247 -38.65649414 59.35400391 C-50.23667169 57.14372468 -64.62477454 54.03272332 -71.890625 43.8515625 C-72.25671875 43.24054688 -72.6228125 42.62953125 -73 42 C-73.40734375 41.36835938 -73.8146875 40.73671875 -74.234375 40.0859375 C-78.01258119 33.17647824 -78.01910936 25.6630704 -77 18 C-73.88624912 7.91849714 -67.36046231 0.81934269 -58.25 -4.3125 C-40.18752475 -12.31261207 -16.34434525 -11.46428008 0 0 Z " fill="#ECEDEE" transform="translate(723,436)"/>
<path d="M0 0 C5.62217513 4.66849437 9.94834419 9.78640576 11.35546875 17.1328125 C11.44173117 19.0573587 11.47318213 20.98465889 11.46899414 22.91113281 C11.46888084 24.65248505 11.46888084 24.65248505 11.46876526 26.42901611 C11.46360397 27.67705017 11.45844269 28.92508423 11.453125 30.2109375 C11.45171005 31.49264832 11.4502951 32.77435913 11.44883728 34.09490967 C11.44502776 37.4946489 11.43521089 40.8943451 11.4241333 44.29406738 C11.41388549 47.7663515 11.40933245 51.2386426 11.40429688 54.7109375 C11.39358716 61.51824679 11.37652959 68.32552758 11.35546875 75.1328125 C7.70965188 75.16168762 4.06386412 75.17956835 0.41796875 75.1953125 C-0.62294922 75.20369141 -1.66386719 75.21207031 -2.73632812 75.22070312 C-4.22036133 75.22553711 -4.22036133 75.22553711 -5.734375 75.23046875 C-7.10903931 75.23832397 -7.10903931 75.23832397 -8.51147461 75.24633789 C-10.64453125 75.1328125 -10.64453125 75.1328125 -11.64453125 74.1328125 C-12.01213856 71.80463286 -12.34694706 69.470974 -12.64453125 67.1328125 C-13.44890625 67.8753125 -14.25328125 68.6178125 -15.08203125 69.3828125 C-23.8741953 76.50994779 -32.70686639 77.06201023 -43.64453125 76.1328125 C-46.88504965 75.50107048 -49.67758828 74.56724361 -52.64453125 73.1328125 C-53.2890625 72.83117187 -53.93359375 72.52953125 -54.59765625 72.21875 C-60.75992575 69.0340477 -63.90980854 64.7227712 -66.10546875 58.3046875 C-67.54070372 52.52214661 -67.24251004 46.59909633 -64.85546875 41.11328125 C-60.35857373 33.75868198 -53.57322867 29.81545442 -45.37109375 27.7421875 C-34.40408092 25.95721162 -22.72455858 26.84455884 -11.64453125 27.1328125 C-11.92892368 25.51799733 -12.22392626 23.90504818 -12.5234375 22.29296875 C-12.68658447 21.39457275 -12.84973145 20.49617676 -13.01782227 19.57055664 C-13.82181162 16.44323536 -15.00663335 14.9713474 -17.64453125 13.1328125 C-23.11365668 11.30977069 -30.4720391 10.64156846 -35.796875 13.14453125 C-38.3797795 15.24748283 -39.5909064 16.97193795 -40.64453125 20.1328125 C-48.06287707 20.22658373 -55.30689418 20.30683443 -62.64453125 19.1328125 C-62.1407405 11.07216049 -58.65652219 5.75006143 -52.76953125 0.3203125 C-38.90632535 -11.14098202 -14.27400698 -10.07825012 0 0 Z " fill="#EDEDEE" transform="translate(1036.64453125,468.8671875)"/>
<path d="M0 0 C8.42221701 4.89851853 13.54285606 11.63376994 16.43701172 20.90039062 C17.81792072 26.58574452 17.62299812 32.27581843 17.5703125 38.09375 C17.5674826 39.28101685 17.56465271 40.46828369 17.56173706 41.69152832 C17.55059598 45.46112401 17.52550226 49.23047685 17.5 53 C17.48996237 55.56510072 17.48083789 58.13020519 17.47265625 60.6953125 C17.4523833 66.96370914 17.41322204 73.23158464 17.375 79.5 C9.455 79.5 1.535 79.5 -6.625 79.5 C-6.65078125 75.74367188 -6.6765625 71.98734375 -6.703125 68.1171875 C-6.74155353 64.47323153 -6.78671142 60.82941666 -6.83251953 57.18554688 C-6.86071932 54.65599317 -6.88193873 52.12635151 -6.89599609 49.59667969 C-6.91743829 45.95722454 -6.9640986 42.31882585 -7.015625 38.6796875 C-7.01685364 37.55134491 -7.01808228 36.42300232 -7.01934814 35.26046753 C-7.13437509 29.07327502 -7.40826212 25.17442563 -11.625 20.5 C-16.68625848 17.4226 -23.83909992 16.22219521 -29.625 17.5 C-34.21775199 19.93841987 -37.61242372 22.64560045 -39.625 27.5 C-39.94931277 29.96185969 -39.94931277 29.96185969 -39.94384766 32.63574219 C-39.96371735 33.65649841 -39.98358704 34.67725464 -40.00405884 35.72894287 C-40.01561005 36.82386047 -40.02716125 37.91877808 -40.0390625 39.046875 C-40.05842865 40.1732135 -40.0777948 41.299552 -40.0977478 42.46002197 C-40.15751521 46.05660434 -40.20391819 49.65321876 -40.25 53.25 C-40.28818234 55.68881602 -40.32723422 58.1276186 -40.3671875 60.56640625 C-40.46485058 66.54420077 -40.5444434 72.52185244 -40.625 78.5 C-48.215 78.5 -55.805 78.5 -63.625 78.5 C-63.625 52.43 -63.625 26.36 -63.625 -0.5 C-56.365 -0.5 -49.105 -0.5 -41.625 -0.5 C-41.625 2.8 -41.625 6.1 -41.625 9.5 C-40.965 9.5 -40.305 9.5 -39.625 9.5 C-39.50705078 8.60667969 -39.50705078 8.60667969 -39.38671875 7.6953125 C-38.37273972 4.77297294 -37.01966035 4.0272366 -34.4375 2.375 C-33.68082031 1.87742187 -32.92414062 1.37984375 -32.14453125 0.8671875 C-22.59745805 -4.31339486 -9.84237791 -4.5732261 0 0 Z " fill="#ECEDEE" transform="translate(943.625,464.5)"/>
<path d="M0 0 C3.40374852 1.13458284 3.87421722 1.82145546 5.9375 4.625 C8.62280541 8.19600488 11.35910658 11.70871391 14.16772461 15.18261719 C18.86364928 20.99123083 23.43211396 26.87069976 27.875 32.875 C32.68649923 39.36818057 37.74239762 45.62041699 42.90942383 51.83300781 C48.11136113 58.0976753 53.11264883 64.48661139 58 71 C58.56847656 71.75410156 59.13695312 72.50820313 59.72265625 73.28515625 C63 77.73102368 63 77.73102368 63 80 C56.4531746 80.1272904 49.90667098 80.21455591 43.35888672 80.2746582 C41.13383051 80.29972607 38.90885602 80.33378944 36.68408203 80.37719727 C33.47668235 80.43818809 30.27037593 80.46628784 27.0625 80.48828125 C25.58233398 80.52699089 25.58233398 80.52699089 24.07226562 80.56648254 C16.16908737 80.56965648 11.34013793 78.29390765 5.7421875 72.7734375 C5.12601563 71.98195313 4.50984375 71.19046875 3.875 70.375 C2.75738281 68.94414063 2.75738281 68.94414063 1.6171875 67.484375 C0.74231911 66.32477798 -0.12981933 65.16311889 -1 64 C-1.53463867 63.28908203 -2.06927734 62.57816406 -2.62011719 61.84570312 C-6.23618071 57.02293758 -9.80419621 52.16727557 -13.34033203 47.28564453 C-14.86090674 45.19155504 -16.39596542 43.10891675 -17.93359375 41.02734375 C-18.76939858 39.87324182 -19.60412226 38.71835575 -20.4375 37.5625 C-21.15808594 36.57378906 -21.87867188 35.58507812 -22.62109375 34.56640625 C-24 32 -24 32 -23.84765625 29.71484375 C-23 28 -23 28 -21 27 C-20.484375 26.05125 -19.96875 25.1025 -19.4375 24.125 C-16.39464706 18.58307393 -12.31257308 13.60396315 -8 9 C-7.34 9 -6.68 9 -6 9 C-5.7525 8.2575 -5.505 7.515 -5.25 6.75 C-3.90852699 3.79875938 -2.39094474 2.15185026 0 0 Z " fill="#28B0C4" transform="translate(526,490)"/>
<path d="M0 0 C7.59 0 15.18 0 23 0 C23 37.29 23 74.58 23 113 C15.41 113 7.82 113 0 113 C0 75.71 0 38.42 0 0 Z " fill="#F0F1F2" transform="translate(1062,430)"/>
<path d="M0 0 C7.59 0 15.18 0 23 0 C23 26.73 23 53.46 23 81 C15.41 81 7.82 81 0 81 C0 54.27 0 27.54 0 0 Z " fill="#ECEDEE" transform="translate(748,463)"/>
<path d="M0 0 C4.43472631 2.66083579 7.70023338 5.66238382 9.6875 10.5 C10.72423238 17.79700097 10.93592826 25.47085564 6.953125 31.921875 C3.35149258 36.41279937 -0.60033332 39.26796405 -6.3125 40.5 C-12.04072124 41.07798268 -16.4535722 40.88012368 -21.3125 37.5 C-27.69585493 31.03734873 -29.61736534 27.5193454 -29.62719727 18.31884766 C-29.5170154 12.87755873 -28.87966916 8.6997195 -25.3125 4.5 C-18.25801338 -1.86507088 -8.95655874 -3.92497844 0 0 Z " fill="#121A2A" transform="translate(834.3125,482.5)"/>
<path d="M0 0 C3.93515935 1.93278946 6.3869115 4.95602463 8 9 C8.23974502 13.46724889 7.53895094 17.09533235 5.25 20.9375 C0.99383426 24.83898526 -3.14125635 25.50891861 -8.78125 25.38671875 C-13.26018984 24.60605846 -15.6834211 21.73549037 -18.375 18.1875 C-19.37303332 14.69438338 -19.77650152 11.5403205 -19 8 C-14.14327922 0.22328759 -8.92336198 -1.13272578 0 0 Z " fill="#ECEDEE" transform="translate(765,427)"/>
<path d="M0 0 C0.97453125 0.00902344 1.9490625 0.01804687 2.953125 0.02734375 C5.34400728 0.05078377 7.73437261 0.08359558 10.125 0.125 C10.3050613 4.51002213 10.41516362 7.63833176 8 11.375 C7.60554687 12.01953125 7.21109375 12.6640625 6.8046875 13.328125 C3.53856075 16.82212106 0.11574091 17.99919163 -4.56640625 18.59375 C-5.84386719 18.6040625 -7.12132812 18.614375 -8.4375 18.625 C-10.35755859 18.67140625 -10.35755859 18.67140625 -12.31640625 18.71875 C-16.73379934 17.98170966 -18.17607231 16.633606 -20.875 13.125 C-21.50209585 9.15339298 -21.584365 7.13448096 -19.25 3.8125 C-13.24948772 -0.45102188 -7.05780532 -0.12432448 0 0 Z " fill="#171E2E" transform="translate(1014.875,509.875)"/>
<path d="M0 0 C1.47913124 0.01061211 1.47913124 0.01061211 2.98814392 0.0214386 C6.10618256 0.04919966 9.22235732 0.11190327 12.33984375 0.17578125 C14.46677075 0.20088777 16.59372619 0.22369679 18.72070312 0.24414062 C23.90695698 0.29896633 29.0918355 0.38511075 34.27734375 0.48828125 C34.27734375 1.14828125 34.27734375 1.80828125 34.27734375 2.48828125 C33.61734375 2.48828125 32.95734375 2.48828125 32.27734375 2.48828125 C31.84421875 3.44734375 31.84421875 3.44734375 31.40234375 4.42578125 C30.27734375 6.48828125 30.27734375 6.48828125 28.27734375 7.48828125 C28.93734375 5.83828125 29.59734375 4.18828125 30.27734375 2.48828125 C24.72729526 2.36405496 19.17806793 2.27364808 13.62695312 2.21362305 C11.74139292 2.18858348 9.85592877 2.15454126 7.97070312 2.11108398 C5.24975811 2.04996339 2.53010348 2.02196632 -0.19140625 2 C-1.44189758 1.96129036 -1.44189758 1.96129036 -2.71765137 1.92179871 C-9.98013975 1.91837128 -14.45810253 4.67133544 -19.859375 9.33203125 C-20.37113281 9.87859375 -20.88289062 10.42515625 -21.41015625 10.98828125 C-22.25320313 11.87193359 -22.25320313 11.87193359 -23.11328125 12.7734375 C-23.90992188 13.62228516 -23.90992188 13.62228516 -24.72265625 14.48828125 C-25.698121 15.47113589 -26.67685523 16.45076647 -27.66015625 17.42578125 C-28.68109375 18.44671875 -28.68109375 18.44671875 -29.72265625 19.48828125 C-28.21250961 16.20238429 -26.35215896 13.42474036 -24.16015625 10.55078125 C-23.54011719 9.71675781 -22.92007813 8.88273437 -22.28125 8.0234375 C-15.63700359 1.44005442 -9.14990422 -0.25176913 0 0 Z " fill="#96C266" transform="translate(552.72265625,398.51171875)"/>
<path d="M0 0 C0.33 0.99 0.66 1.98 1 3 C35.32 3 69.64 3 105 3 C103 5 103 5 101.11408043 5.24609566 C100.34161791 5.24425207 99.56915539 5.24240849 98.77328491 5.24050903 C97.88704941 5.24325836 97.0008139 5.24600769 96.08772278 5.24884033 C95.11308578 5.24164978 94.13844879 5.23445923 93.13427734 5.22705078 C91.5976519 5.22748886 91.5976519 5.22748886 90.02998352 5.22793579 C86.63188307 5.22653849 83.23399981 5.21095839 79.8359375 5.1953125 C77.48467122 5.1915838 75.13340339 5.18873615 72.78213501 5.18673706 C66.58426649 5.17908938 60.38649125 5.15943115 54.18865967 5.1373291 C47.86797345 5.11689509 41.54727221 5.10774058 35.2265625 5.09765625 C22.81766728 5.07618633 10.40884139 5.04203673 -2 5 C-1.34 3.35 -0.68 1.7 0 0 Z " fill="#2A8BD1" transform="translate(312,565)"/>
<path d="M0 0 C0.33 0.99 0.66 1.98 1 3 C9.58 3 18.16 3 27 3 C26.67 3.66 26.34 4.32 26 5 C16.76 5 7.52 5 -2 5 C-1.34 3.35 -0.68 1.7 0 0 Z " fill="#269DC7" transform="translate(1095,540)"/>
<path d="M0 0 C0.556875 0.226875 1.11375 0.45375 1.6875 0.6875 C0.8625 1.0175 0.0375 1.3475 -0.8125 1.6875 C-5.49143892 4.01037748 -8.76559946 7.94395405 -12.3125 11.6875 C-13.3088921 12.69109493 -14.30824172 13.69177649 -15.3125 14.6875 C-15.9725 15.3475 -16.6325 16.0075 -17.3125 16.6875 C-15.77902458 13.29812613 -13.80098998 10.54193376 -11.5 7.625 C-10.83355469 6.76777344 -10.16710937 5.91054688 -9.48046875 5.02734375 C-6.75643919 2.08735508 -4.18016702 -0.56488744 0 0 Z " fill="#8DC974" transform="translate(540.3125,401.3125)"/>
<path d="M0 0 C0.66 0 1.32 0 2 0 C0.59155282 3.21524305 -1.10344786 5.32183868 -3.625 7.75 C-4.57246094 8.67039062 -4.57246094 8.67039062 -5.5390625 9.609375 C-6.02117188 10.06828125 -6.50328125 10.5271875 -7 11 C-7.66 10.67 -8.32 10.34 -9 10 C-7.5484451 8.32742645 -6.08855591 6.66208242 -4.625 5 C-3.81289063 4.071875 -3.00078125 3.14375 -2.1640625 2.1875 C-1.44992187 1.465625 -0.73578125 0.74375 0 0 Z " fill="#DBDCDE" transform="translate(795,469)"/>
<path d="M0 0 C0.66 0.66 1.32 1.32 2 2 C1.52949219 2.45890625 1.05898438 2.9178125 0.57421875 3.390625 C-4.03368398 7.91549295 -4.03368398 7.91549295 -8 13 C-8.66 12.67 -9.32 12.34 -10 12 C-6.7 8.04 -3.4 4.08 0 0 Z " fill="#53C196" transform="translate(494,452)"/>
<path d="M0 0 C0.66 0.33 1.32 0.66 2 1 C0.88121617 2.17262904 -0.24523051 3.33795138 -1.375 4.5 C-2.00148438 5.1496875 -2.62796875 5.799375 -3.2734375 6.46875 C-5 8 -5 8 -7 8 C-5.50902342 4.2047869 -3.24299151 2.38957269 0 0 Z " fill="#11313C" transform="translate(366,434)"/>
<path d="M0 0 C0.68359375 1.765625 0.68359375 1.765625 1 4 C-0.21484375 5.921875 -0.21484375 5.921875 -1.9375 7.75 C-2.50339844 8.36359375 -3.06929688 8.9771875 -3.65234375 9.609375 C-4.31943359 10.29773438 -4.31943359 10.29773438 -5 11 C-5 7.58678765 -4.33132534 6.60527115 -2.5 3.8125 C-2.0359375 3.09707031 -1.571875 2.38164063 -1.09375 1.64453125 C-0.7328125 1.10183594 -0.371875 0.55914063 0 0 Z " fill="#358CD6" transform="translate(319,554)"/>
<path d="M0 0 C0.33 0.66 0.66 1.32 1 2 C-0.61000397 5.13950774 -2.38499232 7.63404067 -5 10 C-5.66 9.67 -6.32 9.34 -7 9 C-4.69 6.03 -2.38 3.06 0 0 Z " fill="#33AEA7" transform="translate(1128,496)"/>
<path d="M0 0 C0.66 0.66 1.32 1.32 2 2 C-0.31 4.31 -2.62 6.62 -5 9 C-5 4.61031544 -2.87194899 3.23094261 0 0 Z " fill="#289FC3" transform="translate(1102,531)"/>
<path d="M0 0 C2.97 0 5.94 0 9 0 C9 0.33 9 0.66 9 1 C7.02 1.33 5.04 1.66 3 2 C3.33 3.32 3.66 4.64 4 6 C2.62437146 4.71034824 1.29233607 3.37310707 0 2 C0 1.34 0 0.68 0 0 Z " fill="#81D88D" transform="translate(1095,429)"/>
</svg>
