<?xml version="1.0" encoding="UTF-8"?>
<svg version="1.1" xmlns="http://www.w3.org/2000/svg" width="1536" height="1024">
<path d="M0 0 C506.88 0 1013.76 0 1536 0 C1536 337.92 1536 675.84 1536 1024 C1029.12 1024 522.24 1024 0 1024 C0 686.08 0 348.16 0 0 Z " fill="#0F1826" transform="translate(0,0)"/>
<path d="M0 0 C1.77246239 -0.0027172 3.54492365 -0.00628219 5.31738281 -0.01062012 C10.08343735 -0.01965508 14.84940429 -0.01623825 19.61546016 -0.00986195 C24.62316401 -0.00476105 29.63086089 -0.00950416 34.63856506 -0.01263428 C43.03656346 -0.01625973 51.43452652 -0.01150982 59.83251953 -0.00195312 C69.52852951 0.00895354 79.22445551 0.0053841 88.9204635 -0.00560594 C97.27072299 -0.0146898 105.62095725 -0.01595945 113.97122008 -0.0107286 C118.94783217 -0.00761814 123.9244048 -0.00717462 128.90101433 -0.01380157 C133.5739548 -0.01959129 138.24678706 -0.01554843 142.91971588 -0.00401306 C144.63051486 -0.00137624 146.34132301 -0.0021148 148.0521183 -0.00653839 C150.39362672 -0.01203343 152.73479191 -0.00511247 155.07627869 0.00482178 C157.03812811 0.00595285 157.03812811 0.00595285 159.03961086 0.00710678 C164.98910615 0.40437193 170.49275203 1.81536142 175.87133789 4.44628906 C177.03342773 4.99349609 177.03342773 4.99349609 178.21899414 5.55175781 C185.19587874 10.15039819 189.76651981 16.69054885 194.30883789 23.57128906 C195.4356817 25.25669351 196.56327934 26.94159422 197.69165039 28.62597656 C198.4926416 29.82625488 198.4926416 29.82625488 199.30981445 31.05078125 C200.58274898 32.9257682 201.88590199 34.76133307 203.23852539 36.57910156 C204.20145508 37.87460937 204.20145508 37.87460937 205.18383789 39.19628906 C205.72782227 39.9065625 206.27180664 40.61683594 206.83227539 41.34863281 C207.80883789 43.25878906 207.80883789 43.25878906 207.74633789 45.17675781 C206.42510892 48.11098715 204.54321335 50.2050129 202.43383789 52.63378906 C201.51663538 53.70383097 200.60134133 54.77551105 199.68774414 55.84863281 C199.21224121 56.40663574 198.73673828 56.96463867 198.24682617 57.53955078 C195.88133366 60.36769989 193.6300401 63.28268487 191.37133789 66.19628906 C187.70188569 70.91238835 183.93976243 75.52763742 180.05883789 80.07128906 C176.49842712 84.24066052 173.02779978 88.45416486 169.69165039 92.80566406 C167.21156049 96.03698451 164.6987092 99.2420048 162.18383789 102.44628906 C161.5003125 103.32015259 161.5003125 103.32015259 160.80297852 104.21166992 C159.91533691 105.34296206 159.02380961 106.47121759 158.12817383 107.59619141 C157.22970468 108.72842214 156.34271402 109.86983508 155.46606445 111.01904297 C154.31458482 112.48789002 153.06763549 113.88080299 151.80883789 115.25878906 C150.81883789 115.25878906 149.82883789 115.25878906 148.80883789 115.25878906 C147.23412373 113.33448217 145.86826316 111.44709795 144.49633789 109.38378906 C139.87414568 102.66742516 134.96440112 96.22726909 129.92626953 89.81860352 C126.50574576 85.46074491 123.18445269 81.0570252 119.93383789 76.57128906 C114.40858247 69.1872601 108.42519293 63.71515962 99.80883789 60.25878906 C98.99360657 59.91778168 98.17837524 59.57677429 97.33843994 59.22543335 C92.60412701 57.92885756 88.16766214 57.96375072 83.28051758 57.96826172 C82.23256516 57.96154449 81.18461273 57.95482727 80.10490417 57.94790649 C76.64679192 57.92893775 73.18887391 57.92500266 69.73071289 57.92285156 C67.31943686 57.91642228 64.90816161 57.90969382 62.49688721 57.90267944 C57.44313754 57.89070906 52.38945621 57.88699832 47.33569336 57.88818359 C40.87520872 57.88838663 34.41516471 57.86109871 27.95478439 57.82663918 C22.9737753 57.80434708 17.9928718 57.80034679 13.01181793 57.80140305 C10.63089735 57.79905003 8.24997373 57.79024351 5.86910248 57.77473831 C2.53067125 57.75503479 -0.80681563 57.76093451 -4.14526367 57.77294922 C-5.11911514 57.76171021 -6.09296661 57.75047119 -7.09632874 57.7388916 C-15.9195021 57.81915176 -24.12953979 60.2637679 -30.65209961 66.44628906 C-35.97170606 72.71100326 -38.01137601 79.05522716 -37.60131836 87.23535156 C-36.64589472 94.27818866 -34.80965114 100.20754444 -29.56616211 105.19628906 C-21.21986632 111.52429878 -13.44955189 112.72260451 -3.2019043 112.93212891 C1.87368107 113.04353422 6.79917304 113.48167059 11.83227539 114.16113281 C18.93332344 115.11349661 26.03854543 115.70899102 33.18383789 116.22363281 C34.28649994 116.30363525 35.38916199 116.3836377 36.52523804 116.46606445 C41.10434376 116.79522333 45.68376217 117.11909513 50.26391602 117.43334961 C67.68840397 118.63815538 84.18691869 120.23877963 100.80883789 125.94628906 C101.82413574 126.29079102 102.83943359 126.63529297 103.88549805 126.99023438 C110.14606086 129.17445097 116.22866031 131.59011439 122.18383789 134.50878906 C123.16416992 134.98384888 123.16416992 134.98384888 124.16430664 135.46850586 C127.54438513 137.2234404 129.58392524 138.56771894 130.80883789 142.25878906 C130.35895508 142.74605469 129.90907227 143.23332031 129.44555664 143.73535156 C125.33357117 148.26760007 121.43878707 152.9278643 117.68383789 157.75878906 C113.34067729 163.34108471 108.92058762 168.85361615 104.43383789 174.32128906 C103.85102051 175.03542969 103.26820313 175.74957031 102.66772461 176.48535156 C101.06829014 178.42808153 99.44560804 180.34748079 97.80883789 182.25878906 C97.36378906 182.80003418 96.91874023 183.3412793 96.46020508 183.89892578 C95.20727539 185.31738281 95.20727539 185.31738281 92.80883789 187.25878906 C89.17491903 187.1975745 86.70123773 185.75832485 83.62133789 183.94628906 C69.70246983 176.88705435 53.21252348 176.42398911 37.9397583 175.41970825 C33.32789362 175.11494536 28.71867657 174.77652211 24.10903931 174.43998718 C20.72172791 174.1929492 17.33414466 173.94991442 13.9465332 173.70703125 C-22.09442961 171.0971732 -56.83670144 167.87661726 -83.25366211 140.50097656 C-98.73042785 122.5903646 -103.56535377 101.3713701 -102.06225586 78.27832031 C-100.47394255 57.22298749 -91.3899915 38.47664132 -75.87866211 24.07128906 C-53.9060021 5.43008858 -28.04831802 -0.07318666 0 0 Z " fill="#3CD5C3" transform="translate(646.191162109375,345.7412109375)"/>
<path d="M0 0 C0.71288681 -0.00029205 1.42577362 -0.00058411 2.16026306 -0.00088501 C4.4977571 0.0004994 6.83492547 0.01601818 9.17236328 0.03173828 C10.80046413 0.03547158 12.42856724 0.03831706 14.05667114 0.04031372 C18.32774126 0.04792523 22.59867389 0.06755222 26.86968994 0.08972168 C31.23358297 0.11023375 35.59749837 0.11932688 39.96142578 0.12939453 C48.51357198 0.1508006 57.06560675 0.18490636 65.61767578 0.22705078 C63.7913399 4.11440305 61.29573822 7.13198429 58.49267578 10.35205078 C57.48644633 11.52435218 56.48124392 12.69753587 55.47705078 13.87158203 C54.98527344 14.44602051 54.49349609 15.02045898 53.98681641 15.61230469 C51.53096688 18.50870069 49.18102504 21.48715944 46.82080078 24.46142578 C38.94086582 34.35325903 30.89824935 44.11525925 22.84960938 53.86987305 C18.91772356 58.6385504 15.00976877 63.42585577 11.11767578 68.22705078 C6.64238801 73.74766124 2.14062672 79.24542411 -2.38232422 84.72705078 C-11.1745783 95.38555062 -19.89682671 106.0992178 -28.51513672 116.89892578 C-35.00259702 124.98789302 -41.63321657 132.96247791 -48.22631836 140.96533203 C-52.95757212 146.7090115 -57.67914851 152.46034287 -62.38232422 158.22705078 C-63.10669678 159.11360352 -63.10669678 159.11360352 -63.84570312 160.01806641 C-69.56498302 167.01983017 -75.26018107 174.03508975 -80.81982422 181.16455078 C-86.03811188 187.85096006 -91.42790033 194.38936705 -96.83154297 200.92626953 C-104.37001131 210.04701272 -111.83858454 219.22169272 -119.13232422 228.53955078 C-120.04109027 229.69587004 -120.94994209 230.85212189 -121.85888672 232.00830078 C-123.40762859 233.97879306 -124.94253621 235.95721472 -126.46826172 237.94580078 C-150.70949046 268.78138676 -184.03395534 290.17965471 -223.33811569 295.08787727 C-239.99975366 296.90620054 -256.79980816 296.48278737 -273.5362196 296.42983866 C-278.21931047 296.41719121 -282.90240493 296.41614991 -287.58551025 296.41378784 C-296.42115222 296.4076137 -305.25674369 296.39125896 -314.0923636 296.37108886 C-324.16518002 296.34860197 -334.23799907 296.33770453 -344.31083441 296.32769799 C-365.00135901 296.3068883 -385.69183841 296.27179293 -406.38232422 296.22705078 C-404.69367417 291.81253801 -402.47845739 287.9520484 -399.94482422 283.97705078 C-399.5067041 283.28466309 -399.06858398 282.59227539 -398.6171875 281.87890625 C-397.68608735 280.41056955 -396.75276423 278.94364044 -395.81738281 277.47802734 C-394.39053312 275.23992695 -392.97410101 272.995467 -391.55810547 270.75048828 C-374.25837536 243.46887109 -374.25837536 243.46887109 -358.38232422 239.22705078 C-354.38707482 238.80659556 -350.41976784 238.81983439 -346.40527344 238.84228516 C-345.22690414 238.83691238 -344.04853485 238.83153961 -342.8344574 238.82600403 C-340.28475454 238.8162484 -337.73501857 238.81327515 -335.18529892 238.81636047 C-331.1396497 238.82085338 -327.09444257 238.80721734 -323.04885864 238.78796387 C-314.45169548 238.75021399 -305.8545575 238.73733997 -297.25732422 238.72705078 C-287.99322758 238.71594396 -278.729262 238.7003048 -269.46525395 238.65633821 C-264.81560524 238.63524609 -260.16627964 238.63680654 -255.51657104 238.64245605 C-233.86524953 238.59605927 -213.41099586 236.72763822 -196.99560547 220.93017578 C-191.26294959 214.83749803 -186.23597916 208.23588748 -181.20385742 201.56420898 C-177.22906952 196.29669289 -173.10078141 191.2195357 -168.83935547 186.18017578 C-166.13859647 182.93411251 -163.53663847 179.62260018 -160.94482422 176.28955078 C-157.35582641 171.67918559 -153.68223803 167.16512837 -149.88232422 162.72705078 C-145.57140466 157.69111643 -141.43761906 152.54037091 -137.36230469 147.3125 C-133.90802009 142.88358291 -130.38094422 138.52141459 -126.81201172 134.18408203 C-123.90544243 130.64666571 -121.01802076 127.09399876 -118.13232422 123.53955078 C-117.5807666 122.86037598 -117.02920898 122.18120117 -116.4609375 121.48144531 C-115.33115757 120.0902179 -114.20143798 118.69894147 -113.07177734 117.30761719 C-110.88110896 114.60980274 -108.6896637 111.91262016 -106.49804688 109.21557617 C-105.41942475 107.88807886 -104.34097468 106.56044174 -103.26269531 105.23266602 C-100.53259625 101.87118533 -97.7998515 98.51191833 -95.06201172 95.15673828 C-89.41770904 88.23421353 -83.82985321 81.27612384 -78.33496094 74.234375 C-74.62578774 69.49750526 -70.77770278 64.88653885 -66.90576172 60.28173828 C-64.20965875 57.01803468 -61.6034763 53.69518053 -59.00732422 50.35205078 C-54.71133088 44.8278665 -50.23863453 39.48739534 -45.65454102 34.20068359 C-42.79245499 30.89429589 -40.01613014 27.54671916 -37.31982422 24.10205078 C-27.17656069 11.37036108 -17.5777872 -0.06082279 0 0 Z " fill="#4ACBC7" transform="translate(933.38232421875,344.77294921875)"/>
<path d="M0 0 C6.86901442 6.66086247 12.71762342 13.89654089 18.40625 21.58203125 C21.91486114 26.25971826 25.64096579 30.76175445 29.34228516 35.28710938 C32.10172989 38.662191 34.84292925 42.04316418 37.5 45.5 C40.69113232 49.64926386 44.00156469 53.69635417 47.3125 57.75 C52.1591796 63.68997788 56.89182915 69.69914934 61.54296875 75.79296875 C65.51045194 80.98760744 69.57172852 86.10912352 73.61767578 91.24267578 C74.97656619 92.97020902 76.33083709 94.70125465 77.68359375 96.43359375 C82.57929333 102.69702606 87.53453298 108.90461968 92.5625 115.0625 C96.64389818 120.07305597 100.70872547 125.09487488 104.6875 130.1875 C105.47511719 131.19167969 106.26273438 132.19585938 107.07421875 133.23046875 C108.86339921 135.80354978 109.90006298 138.09034147 111 141 C100.7075049 141.06964775 90.41506628 141.1228862 80.12238312 141.15543652 C75.3425715 141.17106257 70.56292166 141.19224475 65.78320312 141.22631836 C61.1666455 141.2590212 56.55024305 141.27687602 51.93357849 141.28463173 C50.17619893 141.29015567 48.41882742 141.30094249 46.66151428 141.31719017 C44.19147687 141.33911002 41.72207284 141.34196091 39.25195312 141.34057617 C38.53265625 141.351362 37.81335938 141.36214783 37.07226562 141.3732605 C28.00643791 141.3186109 19.5246703 137.38074441 13.03515625 131.09765625 C4.44728481 121.69351189 -2.71231895 111.01989348 -10.13818359 100.69873047 C-14.47176818 94.6920929 -18.93852259 88.8116522 -23.48339844 82.96289062 C-26.82440811 78.63872485 -30.12738579 74.28532781 -33.4375 69.9375 C-34.13657471 69.0199292 -34.83564941 68.1023584 -35.5559082 67.15698242 C-39.26380013 62.28831194 -39.26380013 62.28831194 -41 60 C-41.57572754 59.29504395 -42.15145508 58.59008789 -42.74462891 57.86376953 C-43.15890137 57.24872559 -43.57317383 56.63368164 -44 56 C-43.0496867 51.27984882 -39.68968333 48.04735646 -36.5625 44.5625 C-32.33622563 39.7482667 -28.24183333 34.87240046 -24.3125 29.8125 C-19.63409507 23.79657564 -14.84609955 17.88210317 -10 12 C-7.58243586 9.03979376 -5.16610046 6.07858841 -2.75 3.1171875 C-1.86722208 2.04918385 -0.97977769 0.97977769 0 0 Z " fill="#3CC4CE" transform="translate(895,500)"/>
<path d="M0 0 C0.71259476 -0.00014603 1.42518951 -0.00029205 2.15937805 -0.0004425 C4.50765051 0.00025248 6.85584301 0.00802545 9.20410156 0.01586914 C10.83506222 0.01773479 12.46602344 0.019158 14.09698486 0.02015686 C18.38447626 0.02397045 22.67193364 0.03379085 26.95941162 0.04486084 C31.33654317 0.05509986 35.71368023 0.05965982 40.09082031 0.06469727 C48.67547132 0.07541416 57.26009471 0.09247667 65.84472656 0.11352539 C65.18472656 1.43352539 64.52472656 2.75352539 63.84472656 4.11352539 C63.34972656 3.12352539 63.34972656 3.12352539 62.84472656 2.11352539 C61.9471463 2.13049469 61.04956604 2.14746399 60.12478638 2.16494751 C51.67849473 2.32283648 43.23210124 2.47104628 34.78544807 2.60830116 C30.44262332 2.67921417 26.09993141 2.7539091 21.75732422 2.8371582 C17.56885942 2.91731466 13.38033566 2.98765296 9.19158554 3.05109787 C7.59109262 3.07708248 5.99065376 3.10664414 4.39029312 3.13978958 C2.15394904 3.18550436 -0.08224696 3.21865808 -2.31884766 3.2487793 C-3.5934787 3.27098541 -4.86810974 3.29319153 -6.18136597 3.31607056 C-9.15527344 3.11352539 -9.15527344 3.11352539 -11.15527344 1.11352539 C-7.42680562 -0.07000411 -3.89241408 -0.00671106 0 0 Z " fill="#75C378" transform="translate(933.1552734375,344.886474609375)"/>
<path d="M0 0 C0 3 0 3 -2.40625 5.69921875 C-3.4299968 6.70302243 -4.4616054 7.69885649 -5.5 8.6875 C-6.02464844 9.19861328 -6.54929687 9.70972656 -7.08984375 10.23632812 C-8.38660904 11.49772708 -9.69246117 12.74977212 -11 14 C-11.66 13.67 -12.32 13.34 -13 13 C-11.39979779 11.20465118 -9.79509897 9.41370539 -8.1875 7.625 C-7.73568359 7.11710937 -7.28386719 6.60921875 -6.81835938 6.0859375 C-4.64829248 3.67827204 -2.71407209 1.80938139 0 0 Z " fill="#3BC5A9" transform="translate(573,368)"/>
<path d="M0 0 C0.66 0.33 1.32 0.66 2 1 C1.01 1.515625 0.02 2.03125 -1 2.5625 C-4.79208452 4.7162194 -7.89593436 7.38141452 -11.10546875 10.31640625 C-12.99664864 11.99702178 -14.95691367 13.50958891 -17 15 C-13.60096881 7.47593096 -7.48694735 3.0455379 0 0 Z " fill="#73D087" transform="translate(920,347)"/>
<path d="M0 0 C0.66 0.66 1.32 1.32 2 2 C-2.33333333 6.33333333 -6.66666667 10.66666667 -11 15 C-9.58319756 10.67953102 -7.46236215 7.99538801 -4.375 4.6875 C-3.55773437 3.80449219 -2.74046875 2.92148437 -1.8984375 2.01171875 C-0.95871094 1.01591797 -0.95871094 1.01591797 0 0 Z " fill="#318380" transform="translate(895,500)"/>
<path d="M0 0 C0.66 0.33 1.32 0.66 2 1 C-1.63 4.63 -5.26 8.26 -9 12 C-9.66 11.67 -10.32 11.34 -11 11 C-9.92173635 9.72486237 -8.83714481 8.45507431 -7.75 7.1875 C-7.14671875 6.47980469 -6.5434375 5.77210938 -5.921875 5.04296875 C-4.07629602 3.08110329 -2.20054668 1.54330375 0 0 Z " fill="#3EA8D1" transform="translate(562,590)"/>
<path d="M0 0 C0.33 0.66 0.66 1.32 1 2 C0.07421875 3.91015625 0.07421875 3.91015625 -1.3125 6.0625 C-1.76238281 6.77535156 -2.21226562 7.48820313 -2.67578125 8.22265625 C-4 10 -4 10 -6 11 C-4.54955729 6.89041233 -2.48889248 3.56741255 0 0 Z " fill="#3C9BD3" transform="translate(536,625)"/>
<path d="M0 0 C0.33 0.66 0.66 1.32 1 2 C-0.98 4.64 -2.96 7.28 -5 10 C-5.66 9.67 -6.32 9.34 -7 9 C-4.69 6.03 -2.38 3.06 0 0 Z " fill="#4AB8A1" transform="translate(812,472)"/>
</svg>
